{
    "asset" : {
        "copyright" : "Sergey_Zheltov",
        "generator" : "Khronos glTF Blender I/O v1.7.33",
        "version" : "2.0"
    },
    "scene" : 0,
    "scenes" : [
        {
            "name" : "Scene",
            "nodes" : [
                0,
                1,
                2,
                3,
                4
            ]
        }
    ],
    "nodes" : [
        {
            "mesh" : 0,
            "name" : "blade_low"
        },
        {
            "mesh" : 1,
            "name" : "garda_low"
        },
        {
            "mesh" : 2,
            "name" : "tube_low"
        },
        {
            "mesh" : 3,
            "name" : "handle__low"
        },
        {
            "mesh" : 4,
            "name" : "apple_low"
        }
    ],
    "materials" : [
        {
            "doubleSided" : true,
            "name" : "SAO_sword_1",
            "normalTexture" : {
                "index" : 0
            },
            "pbrMetallicRoughness" : {
                "baseColorTexture" : {
                    "index" : 1
                },
                "metallicRoughnessTexture" : {
                    "index" : 2
                }
            }
        }
    ],
    "meshes" : [
        {
            "name" : "Cube.003",
            "primitives" : [
                {
                    "attributes" : {
                        "POSITION" : 0,
                        "NORMAL" : 1,
                        "TANGENT" : 2,
                        "TEXCOORD_0" : 3
                    },
                    "indices" : 4,
                    "material" : 0
                }
            ]
        },
        {
            "name" : "Cube.004",
            "primitives" : [
                {
                    "attributes" : {
                        "POSITION" : 5,
                        "NORMAL" : 6,
                        "TANGENT" : 7,
                        "TEXCOORD_0" : 8
                    },
                    "indices" : 9,
                    "material" : 0
                }
            ]
        },
        {
            "name" : "Cylinder.003",
            "primitives" : [
                {
                    "attributes" : {
                        "POSITION" : 10,
                        "NORMAL" : 11,
                        "TANGENT" : 12,
                        "TEXCOORD_0" : 13
                    },
                    "indices" : 14,
                    "material" : 0
                }
            ]
        },
        {
            "name" : "Cylinder.004",
            "primitives" : [
                {
                    "attributes" : {
                        "POSITION" : 15,
                        "NORMAL" : 16,
                        "TANGENT" : 17,
                        "TEXCOORD_0" : 18
                    },
                    "indices" : 19,
                    "material" : 0
                }
            ]
        },
        {
            "name" : "Cylinder.005",
            "primitives" : [
                {
                    "attributes" : {
                        "POSITION" : 20,
                        "NORMAL" : 21,
                        "TANGENT" : 22,
                        "TEXCOORD_0" : 23
                    },
                    "indices" : 24,
                    "material" : 0
                }
            ]
        }
    ],
    "textures" : [
        {
            "sampler" : 0,
            "source" : 0
        },
        {
            "sampler" : 0,
            "source" : 1
        },
        {
            "sampler" : 0,
            "source" : 2
        }
    ],
    "images" : [
        {
            "mimeType" : "image/png",
            "name" : "sao_sword_1_low_SAO_sword_1_Normal.png",
            "uri" : "sao_sword_1_low_SAO_sword_1_Normal.png"
        },
        {
            "mimeType" : "image/png",
            "name" : "sao_sword_1_low_SAO_sword_1_BaseColor.png",
            "uri" : "sao_sword_1_low_SAO_sword_1_BaseColor.png"
        },
        {
            "mimeType" : "image/png",
            "name" : "sao_sword_1_low_SAO_sword_1_Roughness.png",
            "uri" : "sao_sword_1_low_SAO_sword_1_Roughness.png"
        }
    ],
    "accessors" : [
        {
            "bufferView" : 0,
            "componentType" : 5126,
            "count" : 72,
            "max" : [
                0.7386530041694641,
                0.2536517381668091,
                -0.006368398666381836
            ],
            "min" : [
                -0.7386530041694641,
                -0.2536517381668091,
                -7.695538520812988
            ],
            "type" : "VEC3"
        },
        {
            "bufferView" : 1,
            "componentType" : 5126,
            "count" : 72,
            "type" : "VEC3"
        },
        {
            "bufferView" : 2,
            "componentType" : 5126,
            "count" : 72,
            "type" : "VEC4"
        },
        {
            "bufferView" : 3,
            "componentType" : 5126,
            "count" : 72,
            "type" : "VEC2"
        },
        {
            "bufferView" : 4,
            "componentType" : 5123,
            "count" : 312,
            "type" : "SCALAR"
        },
        {
            "bufferView" : 5,
            "componentType" : 5126,
            "count" : 208,
            "max" : [
                0.9549866914749146,
                0.4892429709434509,
                0.341613233089447
            ],
            "min" : [
                -0.9549866914749146,
                -0.4892429709434509,
                -0.11402012407779694
            ],
            "type" : "VEC3"
        },
        {
            "bufferView" : 6,
            "componentType" : 5126,
            "count" : 208,
            "type" : "VEC3"
        },
        {
            "bufferView" : 7,
            "componentType" : 5126,
            "count" : 208,
            "type" : "VEC4"
        },
        {
            "bufferView" : 8,
            "componentType" : 5126,
            "count" : 208,
            "type" : "VEC2"
        },
        {
            "bufferView" : 9,
            "componentType" : 5123,
            "count" : 912,
            "type" : "SCALAR"
        },
        {
            "bufferView" : 10,
            "componentType" : 5126,
            "count" : 64,
            "max" : [
                0.37496721744537354,
                0.3749672472476959,
                0.8509129881858826
            ],
            "min" : [
                -0.37496721744537354,
                -0.37496715784072876,
                0.28816014528274536
            ],
            "type" : "VEC3"
        },
        {
            "bufferView" : 11,
            "componentType" : 5126,
            "count" : 64,
            "type" : "VEC3"
        },
        {
            "bufferView" : 12,
            "componentType" : 5126,
            "count" : 64,
            "type" : "VEC4"
        },
        {
            "bufferView" : 13,
            "componentType" : 5126,
            "count" : 64,
            "type" : "VEC2"
        },
        {
            "bufferView" : 14,
            "componentType" : 5123,
            "count" : 246,
            "type" : "SCALAR"
        },
        {
            "bufferView" : 15,
            "componentType" : 5126,
            "count" : 26,
            "max" : [
                0.15791350603103638,
                0.15791350603103638,
                2.7166194915771484
            ],
            "min" : [
                -0.15791355073451996,
                -0.15791353583335876,
                0.842006504535675
            ],
            "type" : "VEC3"
        },
        {
            "bufferView" : 16,
            "componentType" : 5126,
            "count" : 26,
            "type" : "VEC3"
        },
        {
            "bufferView" : 17,
            "componentType" : 5126,
            "count" : 26,
            "type" : "VEC4"
        },
        {
            "bufferView" : 18,
            "componentType" : 5126,
            "count" : 26,
            "type" : "VEC2"
        },
        {
            "bufferView" : 19,
            "componentType" : 5123,
            "count" : 72,
            "type" : "SCALAR"
        },
        {
            "bufferView" : 20,
            "componentType" : 5126,
            "count" : 102,
            "max" : [
                0.24083568155765533,
                0.24083569645881653,
                3.1573503017425537
            ],
            "min" : [
                -0.24083565175533295,
                -0.24083569645881653,
                2.703007698059082
            ],
            "type" : "VEC3"
        },
        {
            "bufferView" : 21,
            "componentType" : 5126,
            "count" : 102,
            "type" : "VEC3"
        },
        {
            "bufferView" : 22,
            "componentType" : 5126,
            "count" : 102,
            "type" : "VEC4"
        },
        {
            "bufferView" : 23,
            "componentType" : 5126,
            "count" : 102,
            "type" : "VEC2"
        },
        {
            "bufferView" : 24,
            "componentType" : 5123,
            "count" : 348,
            "type" : "SCALAR"
        }
    ],
    "bufferViews" : [
        {
            "buffer" : 0,
            "byteLength" : 864,
            "byteOffset" : 0
        },
        {
            "buffer" : 0,
            "byteLength" : 864,
            "byteOffset" : 864
        },
        {
            "buffer" : 0,
            "byteLength" : 1152,
            "byteOffset" : 1728
        },
        {
            "buffer" : 0,
            "byteLength" : 576,
            "byteOffset" : 2880
        },
        {
            "buffer" : 0,
            "byteLength" : 624,
            "byteOffset" : 3456
        },
        {
            "buffer" : 0,
            "byteLength" : 2496,
            "byteOffset" : 4080
        },
        {
            "buffer" : 0,
            "byteLength" : 2496,
            "byteOffset" : 6576
        },
        {
            "buffer" : 0,
            "byteLength" : 3328,
            "byteOffset" : 9072
        },
        {
            "buffer" : 0,
            "byteLength" : 1664,
            "byteOffset" : 12400
        },
        {
            "buffer" : 0,
            "byteLength" : 1824,
            "byteOffset" : 14064
        },
        {
            "buffer" : 0,
            "byteLength" : 768,
            "byteOffset" : 15888
        },
        {
            "buffer" : 0,
            "byteLength" : 768,
            "byteOffset" : 16656
        },
        {
            "buffer" : 0,
            "byteLength" : 1024,
            "byteOffset" : 17424
        },
        {
            "buffer" : 0,
            "byteLength" : 512,
            "byteOffset" : 18448
        },
        {
            "buffer" : 0,
            "byteLength" : 492,
            "byteOffset" : 18960
        },
        {
            "buffer" : 0,
            "byteLength" : 312,
            "byteOffset" : 19452
        },
        {
            "buffer" : 0,
            "byteLength" : 312,
            "byteOffset" : 19764
        },
        {
            "buffer" : 0,
            "byteLength" : 416,
            "byteOffset" : 20076
        },
        {
            "buffer" : 0,
            "byteLength" : 208,
            "byteOffset" : 20492
        },
        {
            "buffer" : 0,
            "byteLength" : 144,
            "byteOffset" : 20700
        },
        {
            "buffer" : 0,
            "byteLength" : 1224,
            "byteOffset" : 20844
        },
        {
            "buffer" : 0,
            "byteLength" : 1224,
            "byteOffset" : 22068
        },
        {
            "buffer" : 0,
            "byteLength" : 1632,
            "byteOffset" : 23292
        },
        {
            "buffer" : 0,
            "byteLength" : 816,
            "byteOffset" : 24924
        },
        {
            "buffer" : 0,
            "byteLength" : 696,
            "byteOffset" : 25740
        }
    ],
    "samplers" : [
        {
            "magFilter" : 9729,
            "minFilter" : 9987
        }
    ],
    "buffers" : [
        {
            "byteLength" : 26436,
            "uri" : "sao_sword.bin"
        }
    ]
}
