{
    "asset" : {
        "copyright" : "Sergey_Zheltov",
        "generator" : "Khronos glTF Blender I/O v1.7.33",
        "version" : "2.0"
    },
    "scene" : 0,
    "scenes" : [
        {
            "name" : "Scene",
            "nodes" : [
                0,
                1,
                2,
                3,
                4,
                5,
                6,
                7,
                8
            ]
        }
    ],
    "nodes" : [
        {
            "mesh" : 0,
            "name" : "blade_low"
        },
        {
            "mesh" : 1,
            "name" : "blade_back_low"
        },
        {
            "mesh" : 2,
            "name" : "blade_spears_low"
        },
        {
            "mesh" : 3,
            "name" : "fire_spheres_low"
        },
        {
            "mesh" : 4,
            "name" : "hand_part_1_low"
        },
        {
            "mesh" : 5,
            "name" : "hand_buck_1_low"
        },
        {
            "mesh" : 6,
            "name" : "handlers_low"
        },
        {
            "mesh" : 7,
            "name" : "hand_buck_2_low"
        },
        {
            "mesh" : 8,
            "name" : "apple_low"
        }
    ],
    "materials" : [
        {
            "doubleSided" : true,
            "emissiveFactor" : [
                1,
                1,
                1
            ],
            "emissiveTexture" : {
                "index" : 0
            },
            "name" : "wow_axe",
            "normalTexture" : {
                "index" : 1
            },
            "pbrMetallicRoughness" : {
                "baseColorTexture" : {
                    "index" : 2
                },
                "metallicRoughnessTexture" : {
                    "index" : 3
                }
            }
        }
    ],
    "meshes" : [
        {
            "name" : "Cube.060",
            "primitives" : [
                {
                    "attributes" : {
                        "POSITION" : 0,
                        "NORMAL" : 1,
                        "TANGENT" : 2,
                        "TEXCOORD_0" : 3
                    },
                    "indices" : 4,
                    "material" : 0
                }
            ]
        },
        {
            "name" : "Cube.061",
            "primitives" : [
                {
                    "attributes" : {
                        "POSITION" : 5,
                        "NORMAL" : 6,
                        "TANGENT" : 7,
                        "TEXCOORD_0" : 8
                    },
                    "indices" : 9,
                    "material" : 0
                }
            ]
        },
        {
            "name" : "Cube.062",
            "primitives" : [
                {
                    "attributes" : {
                        "POSITION" : 10,
                        "NORMAL" : 11,
                        "TANGENT" : 12,
                        "TEXCOORD_0" : 13
                    },
                    "indices" : 14,
                    "material" : 0
                }
            ]
        },
        {
            "name" : "Icosphere.008",
            "primitives" : [
                {
                    "attributes" : {
                        "POSITION" : 15,
                        "NORMAL" : 16,
                        "TANGENT" : 17,
                        "TEXCOORD_0" : 18
                    },
                    "indices" : 19,
                    "material" : 0
                }
            ]
        },
        {
            "name" : "Cube.066",
            "primitives" : [
                {
                    "attributes" : {
                        "POSITION" : 20,
                        "NORMAL" : 21,
                        "TEXCOORD_0" : 22
                    },
                    "indices" : 23,
                    "material" : 0
                }
            ]
        },
        {
            "name" : "Cube.067",
            "primitives" : [
                {
                    "attributes" : {
                        "POSITION" : 24,
                        "NORMAL" : 25,
                        "TEXCOORD_0" : 26
                    },
                    "indices" : 27,
                    "material" : 0
                }
            ]
        },
        {
            "name" : "Cube.068",
            "primitives" : [
                {
                    "attributes" : {
                        "POSITION" : 28,
                        "NORMAL" : 29,
                        "TANGENT" : 30,
                        "TEXCOORD_0" : 31
                    },
                    "indices" : 32,
                    "material" : 0
                }
            ]
        },
        {
            "name" : "Cube.069",
            "primitives" : [
                {
                    "attributes" : {
                        "POSITION" : 33,
                        "NORMAL" : 34,
                        "TEXCOORD_0" : 35
                    },
                    "indices" : 36,
                    "material" : 0
                }
            ]
        },
        {
            "name" : "Cube.070",
            "primitives" : [
                {
                    "attributes" : {
                        "POSITION" : 37,
                        "NORMAL" : 38,
                        "TANGENT" : 39,
                        "TEXCOORD_0" : 40
                    },
                    "indices" : 41,
                    "material" : 0
                }
            ]
        }
    ],
    "textures" : [
        {
            "sampler" : 0,
            "source" : 0
        },
        {
            "sampler" : 0,
            "source" : 1
        },
        {
            "sampler" : 0,
            "source" : 2
        },
        {
            "sampler" : 0,
            "source" : 3
        }
    ],
    "images" : [
        {
            "mimeType" : "image/png",
            "name" : "fantasy_axe_wow_low_wow_axe_Emissive.png",
            "uri" : "fantasy_axe_wow_low_wow_axe_Emissive.png"
        },
        {
            "mimeType" : "image/png",
            "name" : "fantasy_axe_wow_low_wow_axe_Normal.png",
            "uri" : "fantasy_axe_wow_low_wow_axe_Normal.png"
        },
        {
            "mimeType" : "image/png",
            "name" : "fantasy_axe_wow_low_wow_axe_BaseColor.png",
            "uri" : "fantasy_axe_wow_low_wow_axe_BaseColor.png"
        },
        {
            "mimeType" : "image/png",
            "name" : "fantasy_axe_wow_low_wow_axe_Roughness.png",
            "uri" : "fantasy_axe_wow_low_wow_axe_Roughness.png"
        }
    ],
    "accessors" : [
        {
            "bufferView" : 0,
            "componentType" : 5126,
            "count" : 241,
            "max" : [
                -0.03660927340388298,
                0.04980769753456116,
                -0.005165554583072662
            ],
            "min" : [
                -0.4152907431125641,
                -0.04980769753456116,
                -0.8348414301872253
            ],
            "type" : "VEC3"
        },
        {
            "bufferView" : 1,
            "componentType" : 5126,
            "count" : 241,
            "type" : "VEC3"
        },
        {
            "bufferView" : 2,
            "componentType" : 5126,
            "count" : 241,
            "type" : "VEC4"
        },
        {
            "bufferView" : 3,
            "componentType" : 5126,
            "count" : 241,
            "type" : "VEC2"
        },
        {
            "bufferView" : 4,
            "componentType" : 5123,
            "count" : 828,
            "type" : "SCALAR"
        },
        {
            "bufferView" : 5,
            "componentType" : 5126,
            "count" : 322,
            "max" : [
                0.2478107064962387,
                0.06468917429447174,
                -0.36955326795578003
            ],
            "min" : [
                -0.05983591824769974,
                -0.06468917429447174,
                -0.6615527272224426
            ],
            "type" : "VEC3"
        },
        {
            "bufferView" : 6,
            "componentType" : 5126,
            "count" : 322,
            "type" : "VEC3"
        },
        {
            "bufferView" : 7,
            "componentType" : 5126,
            "count" : 322,
            "type" : "VEC4"
        },
        {
            "bufferView" : 8,
            "componentType" : 5126,
            "count" : 322,
            "type" : "VEC2"
        },
        {
            "bufferView" : 9,
            "componentType" : 5123,
            "count" : 1212,
            "type" : "SCALAR"
        },
        {
            "bufferView" : 10,
            "componentType" : 5126,
            "count" : 150,
            "max" : [
                0.4208907186985016,
                0.037180013954639435,
                -0.38468700647354126
            ],
            "min" : [
                0.0022044742945581675,
                -0.037180013954639435,
                -0.8351202607154846
            ],
            "type" : "VEC3"
        },
        {
            "bufferView" : 11,
            "componentType" : 5126,
            "count" : 150,
            "type" : "VEC3"
        },
        {
            "bufferView" : 12,
            "componentType" : 5126,
            "count" : 150,
            "type" : "VEC4"
        },
        {
            "bufferView" : 13,
            "componentType" : 5126,
            "count" : 150,
            "type" : "VEC2"
        },
        {
            "bufferView" : 14,
            "componentType" : 5123,
            "count" : 342,
            "type" : "SCALAR"
        },
        {
            "bufferView" : 15,
            "componentType" : 5126,
            "count" : 147,
            "max" : [
                0.09281529486179352,
                0.036694128066301346,
                -0.2949581742286682
            ],
            "min" : [
                -0.09281529486179352,
                -0.036694128066301346,
                -0.7259182929992676
            ],
            "type" : "VEC3"
        },
        {
            "bufferView" : 16,
            "componentType" : 5126,
            "count" : 147,
            "type" : "VEC3"
        },
        {
            "bufferView" : 17,
            "componentType" : 5126,
            "count" : 147,
            "type" : "VEC4"
        },
        {
            "bufferView" : 18,
            "componentType" : 5126,
            "count" : 147,
            "type" : "VEC2"
        },
        {
            "bufferView" : 19,
            "componentType" : 5123,
            "count" : 612,
            "type" : "SCALAR"
        },
        {
            "bufferView" : 20,
            "componentType" : 5126,
            "count" : 230,
            "max" : [
                0.06151400879025459,
                0.04207661375403404,
                0.030664319172501564
            ],
            "min" : [
                -0.04336059093475342,
                -0.04207661375403404,
                -0.3155238628387451
            ],
            "type" : "VEC3"
        },
        {
            "bufferView" : 21,
            "componentType" : 5126,
            "count" : 230,
            "type" : "VEC3"
        },
        {
            "bufferView" : 22,
            "componentType" : 5126,
            "count" : 230,
            "type" : "VEC2"
        },
        {
            "bufferView" : 23,
            "componentType" : 5123,
            "count" : 864,
            "type" : "SCALAR"
        },
        {
            "bufferView" : 24,
            "componentType" : 5126,
            "count" : 97,
            "max" : [
                0.05576787889003754,
                0.05925179645419121,
                0.12311726063489914
            ],
            "min" : [
                -0.08742455393075943,
                -0.05925179645419121,
                -0.006783072836697102
            ],
            "type" : "VEC3"
        },
        {
            "bufferView" : 25,
            "componentType" : 5126,
            "count" : 97,
            "type" : "VEC3"
        },
        {
            "bufferView" : 26,
            "componentType" : 5126,
            "count" : 97,
            "type" : "VEC2"
        },
        {
            "bufferView" : 27,
            "componentType" : 5123,
            "count" : 288,
            "type" : "SCALAR"
        },
        {
            "bufferView" : 28,
            "componentType" : 5126,
            "count" : 99,
            "max" : [
                0.028765786439180374,
                0.04581587016582489,
                0.42382755875587463
            ],
            "min" : [
                -0.11960046738386154,
                -0.04581587016582489,
                0.06768336892127991
            ],
            "type" : "VEC3"
        },
        {
            "bufferView" : 29,
            "componentType" : 5126,
            "count" : 99,
            "type" : "VEC3"
        },
        {
            "bufferView" : 30,
            "componentType" : 5126,
            "count" : 99,
            "type" : "VEC4"
        },
        {
            "bufferView" : 31,
            "componentType" : 5126,
            "count" : 99,
            "type" : "VEC2"
        },
        {
            "bufferView" : 32,
            "componentType" : 5123,
            "count" : 480,
            "type" : "SCALAR"
        },
        {
            "bufferView" : 33,
            "componentType" : 5126,
            "count" : 97,
            "max" : [
                0.041498441249132156,
                0.0576150082051754,
                0.49715083837509155
            ],
            "min" : [
                -0.11449740082025528,
                -0.0576150082051754,
                0.3840913474559784
            ],
            "type" : "VEC3"
        },
        {
            "bufferView" : 34,
            "componentType" : 5126,
            "count" : 97,
            "type" : "VEC3"
        },
        {
            "bufferView" : 35,
            "componentType" : 5126,
            "count" : 97,
            "type" : "VEC2"
        },
        {
            "bufferView" : 36,
            "componentType" : 5123,
            "count" : 288,
            "type" : "SCALAR"
        },
        {
            "bufferView" : 37,
            "componentType" : 5126,
            "count" : 166,
            "max" : [
                0.11887001246213913,
                0.030515354126691818,
                0.741696298122406
            ],
            "min" : [
                -0.09673657268285751,
                -0.030515354126691818,
                0.4669705033302307
            ],
            "type" : "VEC3"
        },
        {
            "bufferView" : 38,
            "componentType" : 5126,
            "count" : 166,
            "type" : "VEC3"
        },
        {
            "bufferView" : 39,
            "componentType" : 5126,
            "count" : 166,
            "type" : "VEC4"
        },
        {
            "bufferView" : 40,
            "componentType" : 5126,
            "count" : 166,
            "type" : "VEC2"
        },
        {
            "bufferView" : 41,
            "componentType" : 5123,
            "count" : 390,
            "type" : "SCALAR"
        }
    ],
    "bufferViews" : [
        {
            "buffer" : 0,
            "byteLength" : 2892,
            "byteOffset" : 0
        },
        {
            "buffer" : 0,
            "byteLength" : 2892,
            "byteOffset" : 2892
        },
        {
            "buffer" : 0,
            "byteLength" : 3856,
            "byteOffset" : 5784
        },
        {
            "buffer" : 0,
            "byteLength" : 1928,
            "byteOffset" : 9640
        },
        {
            "buffer" : 0,
            "byteLength" : 1656,
            "byteOffset" : 11568
        },
        {
            "buffer" : 0,
            "byteLength" : 3864,
            "byteOffset" : 13224
        },
        {
            "buffer" : 0,
            "byteLength" : 3864,
            "byteOffset" : 17088
        },
        {
            "buffer" : 0,
            "byteLength" : 5152,
            "byteOffset" : 20952
        },
        {
            "buffer" : 0,
            "byteLength" : 2576,
            "byteOffset" : 26104
        },
        {
            "buffer" : 0,
            "byteLength" : 2424,
            "byteOffset" : 28680
        },
        {
            "buffer" : 0,
            "byteLength" : 1800,
            "byteOffset" : 31104
        },
        {
            "buffer" : 0,
            "byteLength" : 1800,
            "byteOffset" : 32904
        },
        {
            "buffer" : 0,
            "byteLength" : 2400,
            "byteOffset" : 34704
        },
        {
            "buffer" : 0,
            "byteLength" : 1200,
            "byteOffset" : 37104
        },
        {
            "buffer" : 0,
            "byteLength" : 684,
            "byteOffset" : 38304
        },
        {
            "buffer" : 0,
            "byteLength" : 1764,
            "byteOffset" : 38988
        },
        {
            "buffer" : 0,
            "byteLength" : 1764,
            "byteOffset" : 40752
        },
        {
            "buffer" : 0,
            "byteLength" : 2352,
            "byteOffset" : 42516
        },
        {
            "buffer" : 0,
            "byteLength" : 1176,
            "byteOffset" : 44868
        },
        {
            "buffer" : 0,
            "byteLength" : 1224,
            "byteOffset" : 46044
        },
        {
            "buffer" : 0,
            "byteLength" : 2760,
            "byteOffset" : 47268
        },
        {
            "buffer" : 0,
            "byteLength" : 2760,
            "byteOffset" : 50028
        },
        {
            "buffer" : 0,
            "byteLength" : 1840,
            "byteOffset" : 52788
        },
        {
            "buffer" : 0,
            "byteLength" : 1728,
            "byteOffset" : 54628
        },
        {
            "buffer" : 0,
            "byteLength" : 1164,
            "byteOffset" : 56356
        },
        {
            "buffer" : 0,
            "byteLength" : 1164,
            "byteOffset" : 57520
        },
        {
            "buffer" : 0,
            "byteLength" : 776,
            "byteOffset" : 58684
        },
        {
            "buffer" : 0,
            "byteLength" : 576,
            "byteOffset" : 59460
        },
        {
            "buffer" : 0,
            "byteLength" : 1188,
            "byteOffset" : 60036
        },
        {
            "buffer" : 0,
            "byteLength" : 1188,
            "byteOffset" : 61224
        },
        {
            "buffer" : 0,
            "byteLength" : 1584,
            "byteOffset" : 62412
        },
        {
            "buffer" : 0,
            "byteLength" : 792,
            "byteOffset" : 63996
        },
        {
            "buffer" : 0,
            "byteLength" : 960,
            "byteOffset" : 64788
        },
        {
            "buffer" : 0,
            "byteLength" : 1164,
            "byteOffset" : 65748
        },
        {
            "buffer" : 0,
            "byteLength" : 1164,
            "byteOffset" : 66912
        },
        {
            "buffer" : 0,
            "byteLength" : 776,
            "byteOffset" : 68076
        },
        {
            "buffer" : 0,
            "byteLength" : 576,
            "byteOffset" : 68852
        },
        {
            "buffer" : 0,
            "byteLength" : 1992,
            "byteOffset" : 69428
        },
        {
            "buffer" : 0,
            "byteLength" : 1992,
            "byteOffset" : 71420
        },
        {
            "buffer" : 0,
            "byteLength" : 2656,
            "byteOffset" : 73412
        },
        {
            "buffer" : 0,
            "byteLength" : 1328,
            "byteOffset" : 76068
        },
        {
            "buffer" : 0,
            "byteLength" : 780,
            "byteOffset" : 77396
        }
    ],
    "samplers" : [
        {
            "magFilter" : 9729,
            "minFilter" : 9987
        }
    ],
    "buffers" : [
        {
            "byteLength" : 78176,
            "uri" : "wow_axe.bin"
        }
    ]
}
