{
    "asset" : {
        "copyright" : "Sergey_Zheltov",
        "generator" : "Khronos glTF Blender I/O v1.7.33",
        "version" : "2.0"
    },
    "scene" : 0,
    "scenes" : [
        {
            "name" : "Scene",
            "nodes" : [
                0,
                1,
                2,
                3
            ]
        }
    ],
    "nodes" : [
        {
            "mesh" : 0,
            "name" : "garda_low"
        },
        {
            "mesh" : 1,
            "name" : "handle_low",
            "rotation" : [
                -0.7071068286895752,
                0,
                0,
                0.7071067094802856
            ],
            "translation" : [
                0,
                0,
                6.628183364868164
            ]
        },
        {
            "mesh" : 2,
            "name" : "apple_low",
            "translation" : [
                0,
                0,
                5.362532138824463
            ]
        },
        {
            "mesh" : 3,
            "name" : "blade_low",
            "translation" : [
                0,
                0,
                -0.7149931192398071
            ]
        }
    ],
    "materials" : [
        {
            "doubleSided" : true,
            "name" : "witcher_sword",
            "normalTexture" : {
                "index" : 0
            },
            "pbrMetallicRoughness" : {
                "baseColorTexture" : {
                    "index" : 1
                },
                "metallicRoughnessTexture" : {
                    "index" : 2
                }
            }
        }
    ],
    "meshes" : [
        {
            "name" : "Cylinder.006",
            "primitives" : [
                {
                    "attributes" : {
                        "POSITION" : 0,
                        "NORMAL" : 1,
                        "TANGENT" : 2,
                        "TEXCOORD_0" : 3
                    },
                    "indices" : 4,
                    "material" : 0
                }
            ]
        },
        {
            "name" : "Plane.006",
            "primitives" : [
                {
                    "attributes" : {
                        "POSITION" : 5,
                        "NORMAL" : 6,
                        "TANGENT" : 7,
                        "TEXCOORD_0" : 8
                    },
                    "indices" : 9,
                    "material" : 0
                }
            ]
        },
        {
            "name" : "Cylinder.007",
            "primitives" : [
                {
                    "attributes" : {
                        "POSITION" : 10,
                        "NORMAL" : 11,
                        "TANGENT" : 12,
                        "TEXCOORD_0" : 13
                    },
                    "indices" : 14,
                    "material" : 0
                }
            ]
        },
        {
            "name" : "Cube.007",
            "primitives" : [
                {
                    "attributes" : {
                        "POSITION" : 15,
                        "NORMAL" : 16,
                        "TANGENT" : 17,
                        "TEXCOORD_0" : 18
                    },
                    "indices" : 19,
                    "material" : 0
                }
            ]
        }
    ],
    "textures" : [
        {
            "sampler" : 0,
            "source" : 0
        },
        {
            "sampler" : 0,
            "source" : 1
        },
        {
            "sampler" : 0,
            "source" : 2
        }
    ],
    "images" : [
        {
            "mimeType" : "image/png",
            "name" : "witcher_sword_low_witcher_sword_Normal.png",
            "uri" : "../witcher_sword_low_witcher_sword_Normal.png"
        },
        {
            "mimeType" : "image/png",
            "name" : "witcher_sword_low_witcher_sword_BaseColor.png",
            "uri" : "../witcher_sword_low_witcher_sword_BaseColor.png"
        },
        {
            "mimeType" : "image/png",
            "name" : "witcher_sword_low_witcher_sword_Roughness.png",
            "uri" : "../witcher_sword_low_witcher_sword_Roughness.png"
        }
    ],
    "accessors" : [
        {
            "bufferView" : 0,
            "componentType" : 5126,
            "count" : 144,
            "max" : [
                2.5301482677459717,
                0.4123823940753937,
                0.30015942454338074
            ],
            "min" : [
                -2.5301482677459717,
                -0.4123823940753937,
                -1.8580697774887085
            ],
            "type" : "VEC3"
        },
        {
            "bufferView" : 1,
            "componentType" : 5126,
            "count" : 144,
            "type" : "VEC3"
        },
        {
            "bufferView" : 2,
            "componentType" : 5126,
            "count" : 144,
            "type" : "VEC4"
        },
        {
            "bufferView" : 3,
            "componentType" : 5126,
            "count" : 144,
            "type" : "VEC2"
        },
        {
            "bufferView" : 4,
            "componentType" : 5123,
            "count" : 528,
            "type" : "SCALAR"
        },
        {
            "bufferView" : 5,
            "componentType" : 5126,
            "count" : 337,
            "max" : [
                0.44329315423965454,
                6.402189254760742,
                0.3464864492416382
            ],
            "min" : [
                -0.44329315423965454,
                1.3995143175125122,
                -0.3464864492416382
            ],
            "type" : "VEC3"
        },
        {
            "bufferView" : 6,
            "componentType" : 5126,
            "count" : 337,
            "type" : "VEC3"
        },
        {
            "bufferView" : 7,
            "componentType" : 5126,
            "count" : 337,
            "type" : "VEC4"
        },
        {
            "bufferView" : 8,
            "componentType" : 5126,
            "count" : 337,
            "type" : "VEC2"
        },
        {
            "bufferView" : 9,
            "componentType" : 5123,
            "count" : 1752,
            "type" : "SCALAR"
        },
        {
            "bufferView" : 10,
            "componentType" : 5126,
            "count" : 115,
            "max" : [
                0.5572482943534851,
                0.3409278392791748,
                0.5572482943534851
            ],
            "min" : [
                -0.5572482943534851,
                -0.3409278392791748,
                -0.5572482943534851
            ],
            "type" : "VEC3"
        },
        {
            "bufferView" : 11,
            "componentType" : 5126,
            "count" : 115,
            "type" : "VEC3"
        },
        {
            "bufferView" : 12,
            "componentType" : 5126,
            "count" : 115,
            "type" : "VEC4"
        },
        {
            "bufferView" : 13,
            "componentType" : 5126,
            "count" : 115,
            "type" : "VEC2"
        },
        {
            "bufferView" : 14,
            "componentType" : 5123,
            "count" : 348,
            "type" : "SCALAR"
        },
        {
            "bufferView" : 15,
            "componentType" : 5126,
            "count" : 92,
            "max" : [
                0.7436287999153137,
                0.2122405767440796,
                0.4676057696342468
            ],
            "min" : [
                -0.7436287999153137,
                -0.2122405767440796,
                -18.98491668701172
            ],
            "type" : "VEC3"
        },
        {
            "bufferView" : 16,
            "componentType" : 5126,
            "count" : 92,
            "type" : "VEC3"
        },
        {
            "bufferView" : 17,
            "componentType" : 5126,
            "count" : 92,
            "type" : "VEC4"
        },
        {
            "bufferView" : 18,
            "componentType" : 5126,
            "count" : 92,
            "type" : "VEC2"
        },
        {
            "bufferView" : 19,
            "componentType" : 5123,
            "count" : 408,
            "type" : "SCALAR"
        }
    ],
    "bufferViews" : [
        {
            "buffer" : 0,
            "byteLength" : 1728,
            "byteOffset" : 0
        },
        {
            "buffer" : 0,
            "byteLength" : 1728,
            "byteOffset" : 1728
        },
        {
            "buffer" : 0,
            "byteLength" : 2304,
            "byteOffset" : 3456
        },
        {
            "buffer" : 0,
            "byteLength" : 1152,
            "byteOffset" : 5760
        },
        {
            "buffer" : 0,
            "byteLength" : 1056,
            "byteOffset" : 6912
        },
        {
            "buffer" : 0,
            "byteLength" : 4044,
            "byteOffset" : 7968
        },
        {
            "buffer" : 0,
            "byteLength" : 4044,
            "byteOffset" : 12012
        },
        {
            "buffer" : 0,
            "byteLength" : 5392,
            "byteOffset" : 16056
        },
        {
            "buffer" : 0,
            "byteLength" : 2696,
            "byteOffset" : 21448
        },
        {
            "buffer" : 0,
            "byteLength" : 3504,
            "byteOffset" : 24144
        },
        {
            "buffer" : 0,
            "byteLength" : 1380,
            "byteOffset" : 27648
        },
        {
            "buffer" : 0,
            "byteLength" : 1380,
            "byteOffset" : 29028
        },
        {
            "buffer" : 0,
            "byteLength" : 1840,
            "byteOffset" : 30408
        },
        {
            "buffer" : 0,
            "byteLength" : 920,
            "byteOffset" : 32248
        },
        {
            "buffer" : 0,
            "byteLength" : 696,
            "byteOffset" : 33168
        },
        {
            "buffer" : 0,
            "byteLength" : 1104,
            "byteOffset" : 33864
        },
        {
            "buffer" : 0,
            "byteLength" : 1104,
            "byteOffset" : 34968
        },
        {
            "buffer" : 0,
            "byteLength" : 1472,
            "byteOffset" : 36072
        },
        {
            "buffer" : 0,
            "byteLength" : 736,
            "byteOffset" : 37544
        },
        {
            "buffer" : 0,
            "byteLength" : 816,
            "byteOffset" : 38280
        }
    ],
    "samplers" : [
        {
            "magFilter" : 9729,
            "minFilter" : 9987
        }
    ],
    "buffers" : [
        {
            "byteLength" : 39096,
            "uri" : "withcer_sword.bin"
        }
    ]
}
