{
    "asset" : {
        "copyright" : "Zheltov_Sergey",
        "generator" : "Khronos glTF Blender I/O v1.7.33",
        "version" : "2.0"
    },
    "scene" : 0,
    "scenes" : [
        {
            "name" : "Scene",
            "nodes" : [
                0,
                1,
                2,
                3,
                4,
                5,
                6,
                7
            ]
        }
    ],
    "nodes" : [
        {
            "mesh" : 0,
            "name" : "base_axis_low"
        },
        {
            "mesh" : 1,
            "name" : "arrows_low",
            "translation" : [
                0,
                5.011560440063477,
                0
            ]
        },
        {
            "mesh" : 2,
            "name" : "uzor_low",
            "translation" : [
                0,
                5.011560440063477,
                0
            ]
        },
        {
            "mesh" : 3,
            "name" : "lamp_in_low",
            "translation" : [
                1.1687431335449219,
                4.4351372718811035,
                0
            ]
        },
        {
            "mesh" : 4,
            "name" : "lamp_sticks_low",
            "translation" : [
                1.1687431335449219,
                4.4351372718811035,
                0
            ]
        },
        {
            "mesh" : 5,
            "name" : "lamp_out_low",
            "translation" : [
                1.1687431335449219,
                4.232794284820557,
                0
            ]
        },
        {
            "mesh" : 6,
            "name" : "1_light_hook_low",
            "translation" : [
                1.1687431335449219,
                4.927298069000244,
                0
            ]
        },
        {
            "mesh" : 7,
            "name" : "1_flag_low",
            "translation" : [
                -0.5397815704345703,
                4.582213401794434,
                0
            ]
        }
    ],
    "materials" : [
        {
            "doubleSided" : true,
            "emissiveFactor" : [
                1,
                1,
                1
            ],
            "emissiveTexture" : {
                "index" : 0
            },
            "name" : "gen_col",
            "normalTexture" : {
                "index" : 1
            },
            "pbrMetallicRoughness" : {
                "baseColorTexture" : {
                    "index" : 2
                },
                "metallicRoughnessTexture" : {
                    "index" : 3
                }
            }
        }
    ],
    "meshes" : [
        {
            "name" : "Cube.043",
            "primitives" : [
                {
                    "attributes" : {
                        "POSITION" : 0,
                        "NORMAL" : 1,
                        "TEXCOORD_0" : 2
                    },
                    "indices" : 3,
                    "material" : 0
                }
            ]
        },
        {
            "name" : "Cube.045",
            "primitives" : [
                {
                    "attributes" : {
                        "POSITION" : 4,
                        "NORMAL" : 5,
                        "TEXCOORD_0" : 6
                    },
                    "indices" : 7,
                    "material" : 0
                }
            ]
        },
        {
            "name" : "Cube.047",
            "primitives" : [
                {
                    "attributes" : {
                        "POSITION" : 8,
                        "NORMAL" : 9,
                        "TEXCOORD_0" : 10
                    },
                    "indices" : 11,
                    "material" : 0
                }
            ]
        },
        {
            "name" : "Cylinder.044",
            "primitives" : [
                {
                    "attributes" : {
                        "POSITION" : 12,
                        "NORMAL" : 13,
                        "TEXCOORD_0" : 14
                    },
                    "indices" : 15,
                    "material" : 0
                }
            ]
        },
        {
            "name" : "Cube.048",
            "primitives" : [
                {
                    "attributes" : {
                        "POSITION" : 16,
                        "NORMAL" : 17,
                        "TEXCOORD_0" : 18
                    },
                    "indices" : 19,
                    "material" : 0
                }
            ]
        },
        {
            "name" : "Cylinder.046",
            "primitives" : [
                {
                    "attributes" : {
                        "POSITION" : 20,
                        "NORMAL" : 21,
                        "TEXCOORD_0" : 22
                    },
                    "indices" : 23,
                    "material" : 0
                }
            ]
        },
        {
            "name" : "Cylinder.048",
            "primitives" : [
                {
                    "attributes" : {
                        "POSITION" : 24,
                        "NORMAL" : 25,
                        "TEXCOORD_0" : 26
                    },
                    "indices" : 27,
                    "material" : 0
                }
            ]
        },
        {
            "name" : "Plane.004",
            "primitives" : [
                {
                    "attributes" : {
                        "POSITION" : 28,
                        "NORMAL" : 29,
                        "TEXCOORD_0" : 30
                    },
                    "indices" : 31,
                    "material" : 0
                }
            ]
        }
    ],
    "textures" : [
        {
            "sampler" : 0,
            "source" : 0
        },
        {
            "sampler" : 0,
            "source" : 1
        },
        {
            "sampler" : 0,
            "source" : 2
        },
        {
            "sampler" : 0,
            "source" : 3
        }
    ],
    "images" : [
        {
            "mimeType" : "image/png",
            "name" : "gensh_light_low_gen_col_Emissive.png",
            "uri" : "../gensh_light_low_gen_col_Emissive.png"
        },
        {
            "mimeType" : "image/png",
            "name" : "gensh_light_low_gen_col_Normal.png",
            "uri" : "../gensh_light_low_gen_col_Normal.png"
        },
        {
            "mimeType" : "image/png",
            "name" : "gensh_light_low_gen_col_BaseColor.png",
            "uri" : "../gensh_light_low_gen_col_BaseColor.png"
        },
        {
            "mimeType" : "image/png",
            "name" : "gensh_light_low_gen_col_Roughness.png",
            "uri" : "../gensh_light_low_gen_col_Roughness.png"
        }
    ],
    "accessors" : [
        {
            "bufferView" : 0,
            "componentType" : 5126,
            "count" : 242,
            "max" : [
                0.2256791591644287,
                5.597949028015137,
                0.2256791591644287
            ],
            "min" : [
                -0.2256791591644287,
                0,
                -0.2256791591644287
            ],
            "type" : "VEC3"
        },
        {
            "bufferView" : 1,
            "componentType" : 5126,
            "count" : 242,
            "type" : "VEC3"
        },
        {
            "bufferView" : 2,
            "componentType" : 5126,
            "count" : 242,
            "type" : "VEC2"
        },
        {
            "bufferView" : 3,
            "componentType" : 5123,
            "count" : 516,
            "type" : "SCALAR"
        },
        {
            "bufferView" : 4,
            "componentType" : 5126,
            "count" : 190,
            "max" : [
                1.278716802597046,
                0.12496872246265411,
                0.03813369944691658
            ],
            "min" : [
                -1.0862386226654053,
                -0.49728912115097046,
                -0.03813375160098076
            ],
            "type" : "VEC3"
        },
        {
            "bufferView" : 5,
            "componentType" : 5126,
            "count" : 190,
            "type" : "VEC3"
        },
        {
            "bufferView" : 6,
            "componentType" : 5126,
            "count" : 190,
            "type" : "VEC2"
        },
        {
            "bufferView" : 7,
            "componentType" : 5123,
            "count" : 450,
            "type" : "SCALAR"
        },
        {
            "bufferView" : 8,
            "componentType" : 5126,
            "count" : 400,
            "max" : [
                0.7782238125801086,
                -0.03800932690501213,
                0.02146332897245884
            ],
            "min" : [
                -0.785549521446228,
                -0.5507087111473083,
                -0.02146339789032936
            ],
            "type" : "VEC3"
        },
        {
            "bufferView" : 9,
            "componentType" : 5126,
            "count" : 400,
            "type" : "VEC3"
        },
        {
            "bufferView" : 10,
            "componentType" : 5126,
            "count" : 400,
            "type" : "VEC2"
        },
        {
            "bufferView" : 11,
            "componentType" : 5123,
            "count" : 1086,
            "type" : "SCALAR"
        },
        {
            "bufferView" : 12,
            "componentType" : 5126,
            "count" : 18,
            "max" : [
                0.11969421803951263,
                0.19497768580913544,
                0.1382109671831131
            ],
            "min" : [
                -0.11969421803951263,
                -0.19497768580913544,
                -0.1382109671831131
            ],
            "type" : "VEC3"
        },
        {
            "bufferView" : 13,
            "componentType" : 5126,
            "count" : 18,
            "type" : "VEC3"
        },
        {
            "bufferView" : 14,
            "componentType" : 5126,
            "count" : 18,
            "type" : "VEC2"
        },
        {
            "bufferView" : 15,
            "componentType" : 5123,
            "count" : 36,
            "type" : "SCALAR"
        },
        {
            "bufferView" : 16,
            "componentType" : 5126,
            "count" : 24,
            "max" : [
                0.14535796642303467,
                0.19182610511779785,
                0.09227187931537628
            ],
            "min" : [
                -0.1443125456571579,
                -0.19497784972190857,
                -0.1594955176115036
            ],
            "type" : "VEC3"
        },
        {
            "bufferView" : 17,
            "componentType" : 5126,
            "count" : 24,
            "type" : "VEC3"
        },
        {
            "bufferView" : 18,
            "componentType" : 5126,
            "count" : 24,
            "type" : "VEC2"
        },
        {
            "bufferView" : 19,
            "componentType" : 5123,
            "count" : 54,
            "type" : "SCALAR"
        },
        {
            "bufferView" : 20,
            "componentType" : 5126,
            "count" : 212,
            "max" : [
                0.17573463916778564,
                0.5407748818397522,
                0.18082204461097717
            ],
            "min" : [
                -0.17573463916778564,
                -0.0758681446313858,
                -0.18082204461097717
            ],
            "type" : "VEC3"
        },
        {
            "bufferView" : 21,
            "componentType" : 5126,
            "count" : 212,
            "type" : "VEC3"
        },
        {
            "bufferView" : 22,
            "componentType" : 5126,
            "count" : 212,
            "type" : "VEC2"
        },
        {
            "bufferView" : 23,
            "componentType" : 5123,
            "count" : 558,
            "type" : "SCALAR"
        },
        {
            "bufferView" : 24,
            "componentType" : 5126,
            "count" : 123,
            "max" : [
                0.029680617153644562,
                0.09166808426380157,
                0.07938689738512039
            ],
            "min" : [
                -0.029680617153644562,
                -0.15562354028224945,
                -0.0793868899345398
            ],
            "type" : "VEC3"
        },
        {
            "bufferView" : 25,
            "componentType" : 5126,
            "count" : 123,
            "type" : "VEC3"
        },
        {
            "bufferView" : 26,
            "componentType" : 5126,
            "count" : 123,
            "type" : "VEC2"
        },
        {
            "bufferView" : 27,
            "componentType" : 5123,
            "count" : 291,
            "type" : "SCALAR"
        },
        {
            "bufferView" : 28,
            "componentType" : 5126,
            "count" : 6,
            "max" : [
                0.34054744243621826,
                0.007312297821044922,
                4.371138828673793e-08
            ],
            "min" : [
                -0.34054744243621826,
                -2.4247469902038574,
                -4.371138828673793e-08
            ],
            "type" : "VEC3"
        },
        {
            "bufferView" : 29,
            "componentType" : 5126,
            "count" : 6,
            "type" : "VEC3"
        },
        {
            "bufferView" : 30,
            "componentType" : 5126,
            "count" : 6,
            "type" : "VEC2"
        },
        {
            "bufferView" : 31,
            "componentType" : 5123,
            "count" : 12,
            "type" : "SCALAR"
        }
    ],
    "bufferViews" : [
        {
            "buffer" : 0,
            "byteLength" : 2904,
            "byteOffset" : 0
        },
        {
            "buffer" : 0,
            "byteLength" : 2904,
            "byteOffset" : 2904
        },
        {
            "buffer" : 0,
            "byteLength" : 1936,
            "byteOffset" : 5808
        },
        {
            "buffer" : 0,
            "byteLength" : 1032,
            "byteOffset" : 7744
        },
        {
            "buffer" : 0,
            "byteLength" : 2280,
            "byteOffset" : 8776
        },
        {
            "buffer" : 0,
            "byteLength" : 2280,
            "byteOffset" : 11056
        },
        {
            "buffer" : 0,
            "byteLength" : 1520,
            "byteOffset" : 13336
        },
        {
            "buffer" : 0,
            "byteLength" : 900,
            "byteOffset" : 14856
        },
        {
            "buffer" : 0,
            "byteLength" : 4800,
            "byteOffset" : 15756
        },
        {
            "buffer" : 0,
            "byteLength" : 4800,
            "byteOffset" : 20556
        },
        {
            "buffer" : 0,
            "byteLength" : 3200,
            "byteOffset" : 25356
        },
        {
            "buffer" : 0,
            "byteLength" : 2172,
            "byteOffset" : 28556
        },
        {
            "buffer" : 0,
            "byteLength" : 216,
            "byteOffset" : 30728
        },
        {
            "buffer" : 0,
            "byteLength" : 216,
            "byteOffset" : 30944
        },
        {
            "buffer" : 0,
            "byteLength" : 144,
            "byteOffset" : 31160
        },
        {
            "buffer" : 0,
            "byteLength" : 72,
            "byteOffset" : 31304
        },
        {
            "buffer" : 0,
            "byteLength" : 288,
            "byteOffset" : 31376
        },
        {
            "buffer" : 0,
            "byteLength" : 288,
            "byteOffset" : 31664
        },
        {
            "buffer" : 0,
            "byteLength" : 192,
            "byteOffset" : 31952
        },
        {
            "buffer" : 0,
            "byteLength" : 108,
            "byteOffset" : 32144
        },
        {
            "buffer" : 0,
            "byteLength" : 2544,
            "byteOffset" : 32252
        },
        {
            "buffer" : 0,
            "byteLength" : 2544,
            "byteOffset" : 34796
        },
        {
            "buffer" : 0,
            "byteLength" : 1696,
            "byteOffset" : 37340
        },
        {
            "buffer" : 0,
            "byteLength" : 1116,
            "byteOffset" : 39036
        },
        {
            "buffer" : 0,
            "byteLength" : 1476,
            "byteOffset" : 40152
        },
        {
            "buffer" : 0,
            "byteLength" : 1476,
            "byteOffset" : 41628
        },
        {
            "buffer" : 0,
            "byteLength" : 984,
            "byteOffset" : 43104
        },
        {
            "buffer" : 0,
            "byteLength" : 582,
            "byteOffset" : 44088
        },
        {
            "buffer" : 0,
            "byteLength" : 72,
            "byteOffset" : 44672
        },
        {
            "buffer" : 0,
            "byteLength" : 72,
            "byteOffset" : 44744
        },
        {
            "buffer" : 0,
            "byteLength" : 48,
            "byteOffset" : 44816
        },
        {
            "buffer" : 0,
            "byteLength" : 24,
            "byteOffset" : 44864
        }
    ],
    "samplers" : [
        {
            "magFilter" : 9729,
            "minFilter" : 9987
        }
    ],
    "buffers" : [
        {
            "byteLength" : 44888,
            "uri" : "genshin_light_Separate.bin"
        }
    ]
}
