{
  "accessors": [
    {
      "bufferView": 2,
      "componentType": 5126,
      "count": 15069,
      "max": [
        106.60087585449219,
        298.9468994140625,
        18.918142318725586
      ],
      "min": [
        -107.52438354492188,
        -351.8304443359375,
        -17.495769500732422
      ],
      "type": "VEC3"
    },
    {
      "bufferView": 2,
      "byteOffset": 180828,
      "componentType": 5126,
      "count": 15069,
      "max": [
        1.0,
        1.0,
        1.0
      ],
      "min": [
        -1.0,
        -1.0,
        -1.0
      ],
      "type": "VEC3"
    },
    {
      "bufferView": 3,
      "componentType": 5126,
      "count": 15069,
      "max": [
        1.0,
        0.9997550249099731,
        0.9988197684288025,
        1.0
      ],
      "min": [
        -0.9999971389770508,
        -0.9999997615814209,
        -0.9999594688415527,
        -1.0
      ],
      "type": "VEC4"
    },
    {
      "bufferView": 1,
      "componentType": 5126,
      "count": 15069,
      "max": [
        0.9999786019325256,
        0.9973770976066589
      ],
      "min": [
        0.0,
        0.0001245439052581787
      ],
      "type": "VEC2"
    },
    {
      "bufferView": 0,
      "componentType": 5125,
      "count": 84576,
      "type": "SCALAR"
    },
    {
      "bufferView": 2,
      "byteOffset": 361656,
      "componentType": 5126,
      "count": 9872,
      "max": [
        88.31377410888672,
        287.8083801269531,
        62.80644607543945
      ],
      "min": [
        -83.88741302490234,
        -362.1403503417969,
        -4.452053070068359
      ],
      "type": "VEC3"
    },
    {
      "bufferView": 2,
      "byteOffset": 480120,
      "componentType": 5126,
      "count": 9872,
      "max": [
        1.0,
        1.0,
        1.0
      ],
      "min": [
        -1.0,
        -1.0,
        -1.0
      ],
      "type": "VEC3"
    },
    {
      "bufferView": 3,
      "byteOffset": 241104,
      "componentType": 5126,
      "count": 9872,
      "max": [
        1.0,
        0.9999992251396179,
        0.9999991655349731,
        1.0
      ],
      "min": [
        -0.9999999403953552,
        -1.0,
        -0.9999935626983643,
        -1.0
      ],
      "type": "VEC4"
    },
    {
      "bufferView": 1,
      "byteOffset": 120552,
      "componentType": 5126,
      "count": 9872,
      "max": [
        0.987916886806488,
        1.0055279731750488
      ],
      "min": [
        0.0005934238433837891,
        0.003548145294189453
      ],
      "type": "VEC2"
    },
    {
      "bufferView": 0,
      "byteOffset": 338304,
      "componentType": 5125,
      "count": 45324,
      "type": "SCALAR"
    }
  ],
  "asset": {
    "extras": {
      "author": "MacDrawz (https://sketchfab.com/MacDrawz)",
      "license": "CC-BY-4.0 (http://creativecommons.org/licenses/by/4.0/)",
      "source": "https://sketchfab.com/3d-models/guitar-hero-guitar-67f08c75965e4d7da799b709ebaffe82",
      "title": "Guitar Hero Guitar"
    },
    "generator": "Sketchfab-13.90.0",
    "version": "2.0"
  },
  "bufferViews": [
    {
      "buffer": 0,
      "byteLength": 519600,
      "name": "floatBufferViews",
      "target": 34963
    },
    {
      "buffer": 0,
      "byteLength": 199528,
      "byteOffset": 519600,
      "byteStride": 8,
      "name": "floatBufferViews",
      "target": 34962
    },
    {
      "buffer": 0,
      "byteLength": 598584,
      "byteOffset": 719128,
      "byteStride": 12,
      "name": "floatBufferViews",
      "target": 34962
    },
    {
      "buffer": 0,
      "byteLength": 399056,
      "byteOffset": 1317712,
      "byteStride": 16,
      "name": "floatBufferViews",
      "target": 34962
    }
  ],
  "buffers": [
    {
      "byteLength": 1716768,
      "uri": "scene.bin"
    }
  ],
  "images": [
    {
      "uri": "textures/lambert3_baseColor.png"
    },
    {
      "uri": "textures/lambert3_metallicRoughness.png"
    },
    {
      "uri": "textures/lambert3_normal.png"
    },
    {
      "uri": "textures/lambert2_baseColor.png"
    },
    {
      "uri": "textures/lambert2_metallicRoughness.png"
    },
    {
      "uri": "textures/lambert2_normal.png"
    }
  ],
  "materials": [
    {
      "doubleSided": true,
      "name": "lambert3",
      "normalTexture": {
        "index": 2
      },
      "pbrMetallicRoughness": {
        "baseColorTexture": {
          "index": 0
        },
        "metallicRoughnessTexture": {
          "index": 1
        }
      }
    },
    {
      "doubleSided": true,
      "name": "lambert2",
      "normalTexture": {
        "index": 5
      },
      "pbrMetallicRoughness": {
        "baseColorTexture": {
          "index": 3
        },
        "metallicRoughnessTexture": {
          "index": 4
        }
      }
    }
  ],
  "meshes": [
    {
      "name": "body1_lambert3_0",
      "primitives": [
        {
          "attributes": {
            "NORMAL": 1,
            "POSITION": 0,
            "TANGENT": 2,
            "TEXCOORD_0": 3
          },
          "indices": 4,
          "material": 0,
          "mode": 4
        }
      ]
    },
    {
      "name": "pCube11_lambert2_0",
      "primitives": [
        {
          "attributes": {
            "NORMAL": 6,
            "POSITION": 5,
            "TANGENT": 7,
            "TEXCOORD_0": 8
          },
          "indices": 9,
          "material": 1,
          "mode": 4
        }
      ]
    }
  ],
  "nodes": [
    {
      "children": [
        1
      ],
      "matrix": [
        1.0,
        0.0,
        0.0,
        0.0,
        0.0,
        2.220446049250313e-16,
        -1.0,
        0.0,
        0.0,
        1.0,
        2.220446049250313e-16,
        0.0,
        0.0,
        0.0,
        0.0,
        1.0
      ],
      "name": "Sketchfab_model"
    },
    {
      "children": [
        2
      ],
      "matrix": [
        0.009999999776482582,
        0.0,
        0.0,
        0.0,
        0.0,
        0.0,
        0.009999999776482582,
        0.0,
        0.0,
        -0.009999999776482582,
        0.0,
        0.0,
        0.0,
        0.0,
        0.0,
        1.0
      ],
      "name": "56263e8b50604cc4b6e724f35204812f.fbx"
    },
    {
      "children": [
        3,
        5
      ],
      "name": "RootNode"
    },
    {
      "children": [
        4
      ],
      "name": "body1"
    },
    {
      "mesh": 0,
      "name": "body1_lambert3_0"
    },
    {
      "children": [
        6
      ],
      "name": "pCube11"
    },
    {
      "mesh": 1,
      "name": "pCube11_lambert2_0"
    }
  ],
  "samplers": [
    {
      "magFilter": 9729,
      "minFilter": 9987,
      "wrapS": 10497,
      "wrapT": 10497
    }
  ],
  "scene": 0,
  "scenes": [
    {
      "name": "Sketchfab_Scene",
      "nodes": [
        0
      ]
    }
  ],
  "textures": [
    {
      "sampler": 0,
      "source": 0
    },
    {
      "sampler": 0,
      "source": 1
    },
    {
      "sampler": 0,
      "source": 2
    },
    {
      "sampler": 0,
      "source": 3
    },
    {
      "sampler": 0,
      "source": 4
    },
    {
      "sampler": 0,
      "source": 5
    }
  ]
}
